<svg xmlns="http://www.w3.org/2000/svg" viewBox="0 0 58.37 49.34"><defs><style>.cls-1{opacity:0.1;}.cls-2{fill:none;}.cls-2,.cls-4{stroke:#edebe6;stroke-linecap:round;stroke-linejoin:round;stroke-width:2px;}.cls-3{fill:#edebe6;}.cls-4{fill:#356c7b;}</style></defs><g id="Layer_9" data-name="Layer 9"><polygon class="cls-2" points="44.57 4.26 11.73 14.56 15.86 17.85 14.35 22.91 47.19 12.61 44.57 4.26"/><polygon class="cls-2" points="1.17 22.46 14.35 22.91 15.86 17.85 11.73 14.56 1.17 22.46"/><polygon class="cls-3" points="5.41 19.3 6.46 22.64 1.17 22.46 5.41 19.3"/><line class="cls-4" x1="15.85" y1="17.85" x2="45.88" y2="8.43"/><path class="cls-2" d="M50,1.16h2.39a3.18,3.18,0,0,1,3.18,3.18v8a0,0,0,0,1,0,0H46.84a0,0,0,0,1,0,0v-8A3.18,3.18,0,0,1,50,1.16Z" transform="translate(42.33 -44.13) rotate(72.58)"/><line class="cls-4" x1="48.92" y1="2.89" x2="51.54" y2="11.24"/><path class="cls-3" d="M57.23,27.7l-15.76-.41c-5.25-.14-10.5-.24-15.74-.25-2.62,0-5.24,0-7.82.18-.65,0-1.29.09-1.91.17a7.08,7.08,0,0,0-1.64.34s0,0,0,0a.57.57,0,0,0,.21-.44.62.62,0,0,0-.12-.41s0,0,0,0a3.26,3.26,0,0,0,.68.34c.55.22,1.16.41,1.77.59,5,1.41,10.17,2.18,15.34,3.38a70.41,70.41,0,0,1,7.67,2.22,24.79,24.79,0,0,1,3.75,1.66,11.19,11.19,0,0,1,1.78,1.21,4.14,4.14,0,0,1,1.41,2.07,2.82,2.82,0,0,1,0,1.47A3.7,3.7,0,0,1,46.22,41a7,7,0,0,1-1.73,1.47,19.38,19.38,0,0,1-3.75,1.72,53.44,53.44,0,0,1-7.75,2,129.27,129.27,0,0,1-31.53,1.6c5.26,0,10.5-.27,15.72-.81a138.56,138.56,0,0,0,15.5-2.32,58,58,0,0,0,7.46-2.11A18,18,0,0,0,43.51,41c1-.64,1.8-1.55,1.53-2.11a2.41,2.41,0,0,0-.83-1.09,9.43,9.43,0,0,0-1.47-1,24.53,24.53,0,0,0-3.47-1.5,68.77,68.77,0,0,0-7.47-2.12c-5.05-1.21-10.28-2-15.42-3.51-.64-.2-1.29-.41-1.95-.69a5,5,0,0,1-1.06-.58A1.6,1.6,0,0,1,13,28a1.23,1.23,0,0,1-.3-.84,1.21,1.21,0,0,1,.45-.86,1.82,1.82,0,0,1,.41-.26,7.73,7.73,0,0,1,2.2-.46c.69-.08,1.35-.11,2-.15,2.67-.11,5.3-.06,7.94,0C36.28,25.8,46.76,26.65,57.23,27.7Z"/></g></svg>