<svg xmlns="http://www.w3.org/2000/svg" viewBox="0 0 51.3 37.78"><defs><style>.cls-1{opacity:0.1;}.cls-2{fill:#edebe6;stroke-width:3px;}.cls-2,.cls-3{stroke:#356c7b;stroke-linecap:round;stroke-miterlimit:10;}.cls-3{fill:none;}</style></defs><g id="Layer_9" data-name="Layer 9"><path class="cls-2" d="M49.7,5.54,47.37,32.71a3.72,3.72,0,0,1-3.7,3.39H5.3a3.71,3.71,0,0,1-3.71-4L3.91,6.14A3.69,3.69,0,0,1,7.49,2.76L45.88,1.51a3.64,3.64,0,0,1,2,.5A3.69,3.69,0,0,1,49.7,5.54Z"/><path class="cls-3" d="M46.41,34.89a3.69,3.69,0,0,1-2.74,1.21H5.3A3.72,3.72,0,0,1,2.66,35L24.71,18.8Z"/><path class="cls-2" d="M47,2.84,28.77,21.21A5.5,5.5,0,0,1,20.82,21L5.93,4.77A1.11,1.11,0,0,1,6.37,3a3.48,3.48,0,0,1,1.12-.21L45.88,1.51l.85.22A.66.66,0,0,1,47,2.84Z"/></g></svg>