<svg xmlns="http://www.w3.org/2000/svg" viewBox="0 0 127.58 117.16"><defs><style>.cls-1{opacity:0.1;}.cls-2,.cls-3{fill:none;stroke:#edebe6;stroke-miterlimit:10;stroke-width:3px;}.cls-3{stroke-linecap:round;}.cls-4{fill:#edebe6;}</style></defs><g id="Layer_9" data-name="Layer 9"><path class="cls-2" d="M19.25,115.16S-23.49,17.92,39.8,2.54s85.78,112.62,85.78,112.62Z"/><path class="cls-3" d="M54.24,82c-.1.2,1.31,4.34,6.87,2.83s4.35-6,4.35-6"/><path class="cls-4" d="M68.75,59c0-.43.76-.81,1.88-1a3.36,3.36,0,0,0-2.84-2.08c-2,0-3.52,2.24-3.52,5s1.57,5,3.52,5,3.51-2.24,3.51-5a6.48,6.48,0,0,0-.06-.77C69.79,59.9,68.75,59.47,68.75,59Z"/><path class="cls-4" d="M47.71,63.15c-1.45.2-2.57.05-2.69-.45s.52-1,1.55-1.46a3.36,3.36,0,0,0-3.27-1.3c-1.88.49-2.84,3.05-2.15,5.71s2.78,4.43,4.66,3.94,2.84-3,2.14-5.71A6.23,6.23,0,0,0,47.71,63.15Z"/></g></svg>