<svg xmlns="http://www.w3.org/2000/svg" viewBox="0 0 58.37 49.34"><defs><style>.cls-1{opacity:0.1;}.cls-2,.cls-3{fill:none;stroke:#edebe6;stroke-linecap:round;stroke-linejoin:round;}.cls-2{stroke-width:3px;}.cls-3{stroke-width:2px;}</style></defs><g id="Layer_9" data-name="Layer 9"><path class="cls-2" d="M34.8,46c-10.68,4.39-16.69-1.74-16.69-1.74L15.6,30.45l15.9,3.79,9.22-14.81,4.63,11.83A16.5,16.5,0,0,1,34.8,46Z"/><polygon class="cls-2" points="50.37 3.92 40.72 19.43 31.5 34.24 15.6 30.45 1.76 27.15 22.08 1.81 50.37 3.92"/><ellipse class="cls-2" cx="51.34" cy="26.82" rx="1.84" ry="2.36"/><polyline class="cls-3" points="51.5 27.9 44.61 13.17 26.11 15.69"/><path class="cls-3" d="M55.61,37.47h0A3.07,3.07,0,0,0,56,33.32L51.5,27.9l1.07,7.77C52.81,37.47,54.38,38.4,55.61,37.47Z"/></g></svg>