<svg xmlns="http://www.w3.org/2000/svg" viewBox="0 0 48.7 79.05"><defs><style>.cls-1{opacity:0.1;}.cls-2{fill:none;}.cls-2,.cls-4{stroke:#f2af33;stroke-linecap:round;stroke-linejoin:round;stroke-width:2px;}.cls-3{fill:#f2af33;}.cls-4{fill:#356c7b;}</style></defs><g id="Layer_9" data-name="Layer 9"><polygon class="cls-2" points="20.25 32.25 9.27 32.25 7.98 16.95 13.74 20.16 18.88 16.03 20.25 32.25"/><polygon class="cls-2" points="12.12 0.98 18.88 16.02 13.74 20.16 7.97 16.94 12.12 0.98"/><polygon class="cls-3" points="10.46 7.38 14.83 7.01 12.12 0.98 10.46 7.38"/><line class="cls-2" x1="14.76" y1="32.25" x2="13.74" y2="20.16"/><polygon class="cls-2" points="41.83 17.48 38.68 32.25 27.48 32.25 31.12 15.2 35.71 19.95 41.83 17.48"/><polygon class="cls-2" points="39.72 1.1 31.11 15.2 35.7 19.95 41.83 17.48 39.72 1.1"/><polygon class="cls-3" points="40.57 7.66 36.27 6.75 39.72 1.1 40.57 7.66"/><line class="cls-2" x1="35.71" y1="19.95" x2="33.09" y2="32.25"/><path class="cls-2" d="M47.7,32.25,38.35,70.8a9.83,9.83,0,0,1-9.49,7.28h-9a9.82,9.82,0,0,1-9.48-7.28L1,32.25Z"/><line class="cls-4" x1="5.24" y1="48.02" x2="19.93" y2="48.02"/><line class="cls-4" x1="39.96" y1="59.38" x2="20.73" y2="59.38"/></g></svg>