<svg xmlns="http://www.w3.org/2000/svg" viewBox="0 0 49.19 47.65"><defs><style>.cls-1{opacity:0.1;}.cls-2{fill:#f2af33;}.cls-3{fill:none;stroke:#fcfcfc;stroke-miterlimit:10;stroke-width:3px;}</style></defs><g id="Layer_9" data-name="Layer 9"><path class="cls-2" d="M18.42,16.78s4-14.95,7.29-14.95S31.94,17.4,31.94,17.4s15.59,2.68,15.73,4.75S35.5,30,35.5,30s5,14,2.23,15.58S24.22,35.51,24.22,35.51,14.72,47.4,12.05,45.76s.89-16,.89-16-11.13-4.15-11.42-7S18.42,16.78,18.42,16.78Z"/><path class="cls-3" d="M18.42,16.78s4-14.95,7.29-14.95S31.94,17.4,31.94,17.4s15.59,2.68,15.73,4.75S35.5,30,35.5,30s5,14,2.23,15.58S24.22,35.51,24.22,35.51,14.72,47.4,12.05,45.76s.89-16,.89-16-11.13-4.15-11.42-7S18.42,16.78,18.42,16.78Z"/></g></svg>