<svg xmlns="http://www.w3.org/2000/svg" viewBox="0 0 49.19 47.65"><defs><style>.cls-1{opacity:0.1;}.cls-2{fill:#f2af33;}.cls-3{fill:none;stroke:#fcfcfc;stroke-miterlimit:10;stroke-width:3px;}</style></defs><g id="Layer_9" data-name="Layer 9"><path class="cls-2" d="M31.94,17.48V43a85,85,0,0,1-7.72-7.39s-9.5,11.88-12.17,10.24.89-16,.89-16-11.13-4.16-11.43-7,16.91-6,16.91-6,4-14.95,7.29-14.95S31.94,17.48,31.94,17.48Z"/><path class="cls-3" d="M18.42,16.84s4-14.94,7.29-14.94,6.23,15.57,6.23,15.57,15.59,2.67,15.73,4.75S35.5,30.09,35.5,30.09s5,14,2.23,15.58S24.22,35.58,24.22,35.58s-9.5,11.89-12.17,10.25.89-16,.89-16-11.13-4.15-11.42-7S18.42,16.84,18.42,16.84Z"/></g></svg>