<svg xmlns="http://www.w3.org/2000/svg" viewBox="0 0 49.19 47.65"><defs><style>.cls-1{opacity:0.1;}.cls-2{fill:#f2af33;}.cls-3{fill:none;stroke:#fcfcfc;stroke-miterlimit:10;stroke-width:3px;}</style></defs><g id="Layer_9" data-name="Layer 9"><path class="cls-2" d="M24.28,2.34V35.91l-.37-.4S14.41,47.4,11.74,45.76s.89-16,.89-16S1.5,25.57,1.2,22.75s16.9-6,16.9-6S21.27,5,24.28,2.34Z"/><path class="cls-3" d="M18.1,16.78s4-14.95,7.3-14.95S31.63,17.4,31.63,17.4s15.58,2.68,15.73,4.75S35.19,30,35.19,30s5.05,14,2.23,15.58S23.91,35.51,23.91,35.51,14.41,47.4,11.74,45.76s.89-16,.89-16S1.5,25.57,1.2,22.75,18.1,16.78,18.1,16.78Z"/></g></svg>