<svg xmlns="http://www.w3.org/2000/svg" viewBox="0 0 48.7 79.05"><defs><style>.cls-1{opacity:0.1;}.cls-2{fill:#f2af33;}</style></defs><g id="Layer_9" data-name="Layer 9"><path class="cls-2" d="M37.85,2a8.86,8.86,0,0,1,8.85,8.85V68.2a8.86,8.86,0,0,1-8.85,8.85h-27A8.86,8.86,0,0,1,2,68.2V10.85A8.86,8.86,0,0,1,10.85,2h27m0-2h-27A10.85,10.85,0,0,0,0,10.85V68.2A10.85,10.85,0,0,0,10.85,79.05h27A10.85,10.85,0,0,0,48.7,68.2V10.85A10.85,10.85,0,0,0,37.85,0Z"/><path class="cls-2" d="M24.35,68.87A2.15,2.15,0,1,1,22.21,71a2.14,2.14,0,0,1,2.14-2.15m0-2A4.15,4.15,0,1,0,28.49,71a4.14,4.14,0,0,0-4.14-4.15Z"/><path class="cls-2" d="M38.62,9.11a3,3,0,0,1,3,3V58.34a3,3,0,0,1-3,3H10.08a3,3,0,0,1-3-3V12.1a3,3,0,0,1,3-3H38.62m0-2H10.08a5,5,0,0,0-5,5V58.34a5,5,0,0,0,5,5H38.62a5,5,0,0,0,5-5V12.1a5,5,0,0,0-5-5Z"/><path class="cls-2" d="M20.12,30.24h0m0,.13,8.39,4.85-8.39,4.86V30.37m-.07-2.06a1.93,1.93,0,0,0-1.93,1.93v10a1.92,1.92,0,0,0,1.93,1.93,1.9,1.9,0,0,0,1-.26l8.62-5a1.92,1.92,0,0,0,0-3.33l-8.62-5a1.92,1.92,0,0,0-1-.27Z"/></g></svg>